PathFileType	4	(X/Y/Z)	C:\Users\Biomechanik\SynologyDrive\AlexP\Athlete_03\Athlete_3_25_03_31\Squat_bw_02\marker_experimental.trc
DataRate	CameraRate	NumFrames	NumMarkers	Units	OrigDataRate	OrigDataStartFrame	OrigNumFrames
200.000000	200.000000	4	55	mm	200.000000	151	604
Frame#	Time	BL			BR			GLAB			RFHD			LFHD			C7			T6			SPINMOL			SPINM2			SPINM3			T12			BELTOL			BELT2			BELT3			SACROL			SACR2			SACR3			LTHOL			LTH2			LTH3			LSHAOL			LSHA2			LSHA3			LHEE			LTOE			LM5			RTHOL			RTH2			RTH3			RSHAOL			RSHA2			RSHA3			RHEE			RTOE			RM5			STRN			XIPH			LACR			LUAOL			LUA2			LUA3			LLAOL			LLA2			LLA3			LWRR			LWRU			RACR			RUAOL			RUA2			RUA3			RLAOL			RLA2			RLA3			RWRR			RWRU			
		X1	Y1	Z1	X2	Y2	Z2	X3	Y3	Z3	X4	Y4	Z4	X5	Y5	Z5	X6	Y6	Z6	X7	Y7	Z7	X8	Y8	Z8	X9	Y9	Z9	X10	Y10	Z10	X11	Y11	Z11	X12	Y12	Z12	X13	Y13	Z13	X14	Y14	Z14	X15	Y15	Z15	X16	Y16	Z16	X17	Y17	Z17	X18	Y18	Z18	X19	Y19	Z19	X20	Y20	Z20	X21	Y21	Z21	X22	Y22	Z22	X23	Y23	Z23	X24	Y24	Z24	X25	Y25	Z25	X26	Y26	Z26	X27	Y27	Z27	X28	Y28	Z28	X29	Y29	Z29	X30	Y30	Z30	X31	Y31	Z31	X32	Y32	Z32	X33	Y33	Z33	X34	Y34	Z34	X35	Y35	Z35	X36	Y36	Z36	X37	Y37	Z37	X38	Y38	Z38	X39	Y39	Z39	X40	Y40	Z40	X41	Y41	Z41	X42	Y42	Z42	X43	Y43	Z43	X44	Y44	Z44	X45	Y45	Z45	X46	Y46	Z46	X47	Y47	Z47	X48	Y48	Z48	X49	Y49	Z49	X50	Y50	Z50	X51	Y51	Z51	X52	Y52	Z52	X53	Y53	Z53	X54	Y54	Z54	X55	Y55	Z55	

152	0.755	960.703369140625	36.21370697021496	-1933.564575195312	1063.178955078125	32.89057540893554	86.64362335205078	534.1824340820312	1310.857666015625	-1201.946044921875	488.9202575683594	1343.21533203125	-1138.690185546875	492.7881469726562	1338.923950195312	-1273.805053710938	272.1687927246094	1218.854614257812	-1206.177001953125	148.1155242919922	1098.541015625	-1211.55908203125	126.6711883544922	1068.754150390625	-1232.31591796875	119.3020782470703	1063.487548828125	-1183.037475585938	95.97499847412109	1011.93896484375	-1217.45556640625	71.3427734375	951.9600830078126	-1214.688720703125	37.88353729248047	934.7949829101564	-1230.073486328125	38.2312126159668	932.1601562500001	-1179.478759765625	5.521167755126953	881.1944580078126	-1208.286499023438	-33.88779449462891	786.2302856445314	-1231.016967773438	-31.89177131652832	783.2169799804689	-1179.615600585938	-49.52928924560547	725.9151000976564	-1207.867431640625	126.500846862793	557.5728149414064	-1490.64306640625	141.2226409912109	480.0143127441407	-1486.91650390625	166.5417022705078	516.0161743164064	-1511.241088867188	203.2756958007812	316.061004638672	-1598.062255859375	149.521240234375	265.635467529297	-1567.626220703125	193.7976531982422	255.2774200439454	-1590.1591796875	108.0226745605469	70.06327056884774	-1478.687744140625	315.0328369140625	50.89372253417978	-1545.314819335938	241.2938690185547	26.00258064270029	-1627.113159179688	112.4960784912109	550.9820556640626	-933.0388793945312	173.8985290527344	560.8150024414062	-882.7969970703125	158.8735656738281	519.224609375	-905.5010986328125	188.3946685791016	328.8170776367188	-830.8294677734375	198.2110443115234	251.0680084228516	-823.1998291015625	162.7962493896484	274.8234863281251	-849.1146240234375	92.42718505859375	65.16294097900396	-964.0782470703125	286.2430419921875	47.29081726074224	-877.2447509765625	201.0491333007812	38.86362075805669	-801.5862426757812	394.9197387695312	1062.381469726562	-1208.919677734375	346.9382934570312	921.7819213867189	-1206.792358398438	330.9552001953125	1177.166259765625	-1370.34033203125	234.6999206542969	1092.917846679688	-1485.786743164062	183.5598907470703	1054.755615234375	-1503.809936523438	226.8076782226562	1046.6142578125	-1532.00732421875	242.6413116455078	981.8602294921876	-1619.168090820312	316.7362670898438	953.8718872070314	-1621.128173828125	300.9303283691406	1002.031616210938	-1618.369018554688	389.8815002441406	1056.270263671875	-1612.341552734375	384.6404113769531	1057.551635742188	-1534.541015625	324.2230224609375	1175.887573242188	-1059.60498046875	235.1451416015625	1095.27783203125	-943.2119140624999	220.0623474121094	1054.36279296875	-893.6708374023436	185.9618377685547	1052.644897460938	-933.1954956054686	260.1500549316406	1003.011596679688	-790.6790161132811	283.2943725585938	1078.70703125	-799.7686157226561	312.098388671875	1037.960571289062	-792.8892822265624	371.3852233886719	1110.405517578125	-807.9655761718749	375.3515930175781	1104.685668945312	-886.1417846679686	
153	0.76	960.7034912109375	36.21338653564465	-1933.564331054688	1063.178955078125	32.89004898071288	86.64331817626953	535.1256103515625	1307.663452148438	-1201.958740234375	489.8777160644531	1340.054443359375	-1138.734497070312	493.7770385742188	1335.729248046875	-1273.863891601562	272.9679870605469	1216.06298828125	-1206.261474609375	148.6191558837891	1096.080200195312	-1211.643310546875	127.1071243286133	1066.352416992188	-1232.40673828125	119.7466506958008	1061.115356445312	-1183.105590820312	96.24736785888672	1009.62255859375	-1217.554077148438	71.47377777099609	949.7143554687501	-1214.777465820312	37.97417449951172	932.6330566406251	-1230.160522460938	38.30053329467773	930.0046997070314	-1179.572265625	5.522143363952637	879.0922851562501	-1208.381225585938	-34.1284065246582	784.0713500976564	-1231.107299804688	-32.15103149414062	781.0565795898439	-1179.70751953125	-49.79313659667969	723.7604980468751	-1207.971923828125	126.7219848632812	556.2183837890626	-1491.127563476562	141.7344970703125	478.6970214843751	-1487.66552734375	166.9302062988281	514.8820800781251	-1511.849243164062	203.7879180908203	315.8178710937501	-1598.546875	149.9499359130859	265.561981201172	-1567.976806640625	194.1811218261719	255.071762084961	-1590.5341796875	108.0751647949219	70.09961700439462	-1478.6484375	315.0700988769531	50.8656883239747	-1545.309326171875	241.2933349609375	26.00046920776377	-1627.1123046875	112.5593490600586	549.5898437500001	-932.6245727539062	173.9135131835938	559.8494262695312	-882.40771484375	159.0530090332031	518.115478515625	-904.9598388671875	188.7662048339844	328.5562744140626	-830.32421875	198.4310455322266	250.7806549072266	-822.80029296875	163.089599609375	274.6533813476563	-848.7028198242188	92.44015502929688	65.20133972167974	-964.0923461914062	286.2407531738281	47.29143142700201	-877.2379760742188	201.03955078125	38.85062026977544	-801.57177734375	395.4251403808594	1059.323974609375	-1208.9384765625	347.14306640625	918.7891235351564	-1206.802368164062	331.7716674804688	1174.214233398438	-1370.381225585938	235.4225158691406	1090.182373046875	-1485.889892578125	184.1942749023438	1052.134765625	-1503.954223632812	227.4512481689453	1043.903442382812	-1532.129272460938	243.2112579345703	979.1309814453126	-1619.276977539062	317.2525024414062	950.9876708984376	-1621.179565429688	301.5359191894531	999.1864013671876	-1618.440673828125	390.6008605957031	1053.233032226562	-1612.344970703125	385.2648010253906	1054.593139648438	-1534.540649414062	324.9474792480469	1173.029052734375	-1059.691284179688	235.7484588623047	1092.669799804688	-943.2169799804686	220.5934295654297	1051.833129882812	-893.6808471679686	186.4855346679688	1050.141967773438	-933.1724243164061	260.6457824707031	1000.464111328125	-790.6652221679686	283.9264831542969	1076.112670898438	-799.8187255859374	312.6616516113281	1035.311279296875	-792.9256591796874	372.0793151855469	1107.618896484375	-808.1128540039061	375.9838256835938	1101.85107421875	-886.2859497070311	
154	0.765	960.7036743164062	36.21319961547864	-1933.56396484375	1063.179077148438	32.88949584960937	86.64324188232422	536.0595703125	1304.466064453125	-1201.971801757812	490.8240661621094	1336.889526367188	-1138.781616210938	494.7564697265625	1332.533081054688	-1273.919555664062	273.758056640625	1213.262451171875	-1206.34814453125	149.1211547851562	1093.608764648438	-1211.727905273438	127.5431823730469	1063.938842773438	-1232.4970703125	120.1897964477539	1058.729614257812	-1183.173706054688	96.52277374267578	1007.293395996094	-1217.651977539062	71.60839080810547	947.4549560546876	-1214.865600585938	38.07051086425781	930.4575195312501	-1230.243041992188	38.3751335144043	927.8348999023439	-1179.661254882812	5.53172779083252	876.9747924804689	-1208.471069335938	-34.35742950439453	781.8958129882814	-1231.196533203125	-32.39840316772461	778.8785400390626	-1179.798095703125	-50.04278182983398	721.5877685546876	-1208.076782226562	126.9473037719727	554.8583984375001	-1491.611694335938	142.2523956298828	477.3743286132814	-1488.415405273438	167.3208618164062	513.7433471679689	-1512.458740234375	204.2950134277344	315.5742492675782	-1599.034423828125	150.3753204345703	265.4884033203126	-1568.327758789062	194.560546875	254.8659667968751	-1590.910400390625	108.1292419433594	70.13687896728524	-1478.607788085938	315.1076049804688	50.83687210083017	-1545.3046875	241.29248046875	25.99826240539561	-1627.111450195312	112.6298370361328	548.1841430664064	-932.2235107421875	173.9274749755859	558.8717651367188	-882.0255126953125	159.2357025146484	516.9951171875	-904.427001953125	189.1364288330078	328.2960510253907	-829.8194580078125	198.6483917236328	250.4947662353516	-822.400146484375	163.3831176757812	274.4835815429688	-848.2921752929688	92.45613098144531	65.24033355712896	-964.1076049804688	286.2394104003906	47.29129409790045	-877.231201171875	201.0303802490234	38.83821487426763	-801.5579223632812	395.9295654296875	1056.26123046875	-1208.95849609375	347.3526000976562	915.7882080078126	-1206.815063476562	332.5819091796875	1171.258178710938	-1370.421264648438	236.1473541259766	1087.438720703125	-1485.995239257812	184.8341522216797	1049.503540039062	-1504.099243164062	228.1018676757812	1041.183715820312	-1532.252807617188	243.7920837402344	976.3936157226564	-1619.38818359375	317.7799987792969	948.0994262695314	-1621.2314453125	302.1513366699219	996.3353881835939	-1618.51416015625	391.3263549804688	1050.19384765625	-1612.348388671875	385.89404296875	1051.6337890625	-1534.54052734375	325.6644592285156	1170.168212890625	-1059.778930664062	236.344970703125	1090.056884765625	-943.2253417968749	221.119873046875	1049.300537109375	-893.6893310546874	187.0060424804688	1047.633056640625	-933.1518554687499	261.1376037597656	997.9144897460938	-790.6506958007811	284.5518798828125	1073.5166015625	-799.8684082031249	313.2195434570312	1032.66162109375	-792.9619140624999	372.767578125	1104.8310546875	-808.2569580078124	376.6099243164062	1099.01806640625	-886.4286499023436	
155	0.77	960.703857421875	36.21307373046887	-1933.5634765625	1063.179321289062	32.88898086547851	86.64335632324219	536.984375	1301.265625	-1201.985473632812	491.7591247558594	1333.720825195312	-1138.832885742188	495.7262268066406	1329.335693359375	-1273.972290039062	274.5390014648438	1210.452880859375	-1206.4365234375	149.6214752197266	1091.127075195312	-1211.8125	127.9792938232422	1061.513427734375	-1232.5869140625	120.6302947998047	1056.329956054688	-1183.241821289062	96.80078125	1004.951904296875	-1217.748901367188	71.74633026123047	945.1820068359376	-1214.952758789062	38.17258453369141	928.2680053710939	-1230.321166992188	38.45509338378906	925.6508789062501	-1179.745361328125	5.549877166748047	874.8419189453126	-1208.555541992188	-34.57571792602539	779.7026367187501	-1231.28466796875	-32.63465118408203	776.6820068359376	-1179.887084960938	-50.27877044677734	719.3956909179689	-1208.181030273438	127.1754608154297	553.4909057617189	-1492.092651367188	142.7769470214844	476.0447082519532	-1489.163696289062	167.7124176025391	512.5986938476564	-1513.068603515625	204.797119140625	315.3294067382814	-1599.525756835938	150.7971343994141	265.4140625000001	-1568.681030273438	194.9360504150391	254.659408569336	-1591.288818359375	108.1847534179688	70.17514038085946	-1478.566040039062	315.1450805664062	50.80749511718759	-1545.30126953125	241.2912139892578	25.99586296081553	-1627.11083984375	112.7081146240234	546.7608642578126	-931.8366088867188	173.9396057128906	557.8785400390625	-881.6500244140625	159.4223785400391	515.8600463867188	-903.9031372070312	189.5063781738281	328.0359497070313	-829.314208984375	198.8648223876953	250.2094726562501	-821.9999389648438	163.6774749755859	274.3131713867188	-847.8824462890625	92.4752197265625	65.27959442138678	-964.1240234375	286.2391357421875	47.29045104980474	-877.224365234375	201.0216979980469	38.82655334472661	-801.544677734375	396.4325866699219	1053.19384765625	-1208.979736328125	347.5662231445312	912.7822265625001	-1206.829345703125	333.3855590820312	1168.298950195312	-1370.460205078125	236.8738403320312	1084.687377929688	-1486.1025390625	185.4795684814453	1046.861450195312	-1504.244018554688	228.7590484619141	1038.455688476562	-1532.3779296875	244.3834381103516	973.6488037109376	-1619.502075195312	318.3185424804688	945.2072143554689	-1621.283813476562	302.7761535644531	993.4791870117189	-1618.589477539062	392.0578308105469	1047.153076171875	-1612.3515625	386.5286254882812	1048.67138671875	-1534.54052734375	326.3741455078125	1167.304931640625	-1059.868041992188	236.9348907470703	1087.43896484375	-943.2370605468749	221.6419067382812	1046.764526367188	-893.6969604492186	187.5234222412109	1045.1181640625	-933.1339111328124	261.625732421875	995.3626098632812	-790.6351928710936	285.1709594726562	1070.918334960938	-799.9176635742186	313.7721862792969	1030.010864257812	-792.9984130859374	373.4505615234375	1102.04150390625	-808.3977661132811	377.2294006347656	1096.18701171875	-886.5693359374999	
